<svg xmlns="http://www.w3.org/2000/svg" viewBox="0 0 188 31" width="188" height="31">
	<style>
		tspan { white-space:pre }
	</style>
	<path fill="#ffffff" aria-label="MAGbank"  d="M31.71 2.05L18.02 19.49L11.02 2.05L5.74 2.05L0.14 30.06L6.22 30.06L9.58 13.25L15.34 27.1L18.22 27.1L28.91 13.41L25.63 30.06L31.71 30.06L37.27 2.05ZM56.6 30.06L63.08 30.06L56.2 2.05L49.79 2.05L31.67 30.06L38.59 30.06L42.23 24.06L55.28 24.06ZM45.23 19.13L51.84 8.33L54.2 19.13ZM82.81 24.02C81.33 24.7 79.8 25.02 78.16 25.02C72.84 25.02 70.04 22.18 70.04 17.97C70.04 11.81 74.24 7.09 80.81 7.09C83.93 7.09 86.25 7.97 88.13 10.21L92.77 6.45C90.37 3.29 86.45 1.57 81.09 1.57C70.48 1.57 63.48 8.81 63.48 18.37C63.48 25.62 68.84 30.54 77.32 30.54C81.37 30.54 85.21 29.3 88.05 27.14L90.37 15.61L84.45 15.61ZM105.49 9.01C101.81 9.01 98.81 10.53 96.81 13.09L99.33 0.37L97.33 0.37L91.41 30.06L93.37 30.06L94.41 24.74C95.41 28.22 98.29 30.22 102.69 30.22C109.54 30.22 114.54 24.9 114.54 17.69C114.54 12.33 110.9 9.01 105.49 9.01ZM102.73 28.42C98.01 28.42 95.29 25.86 95.29 21.42C95.29 15.25 99.45 10.81 105.09 10.81C109.78 10.81 112.5 13.37 112.5 17.81C112.5 23.94 108.37 28.42 102.73 28.42ZM137.78 9.17L136.74 14.37C135.74 10.97 132.86 9.01 128.5 9.01C121.66 9.01 116.7 14.33 116.7 21.54C116.7 26.9 120.3 30.22 125.7 30.22C129.42 30.22 132.5 28.62 134.5 25.98L133.7 30.06L135.62 30.06L139.79 9.17ZM126.1 28.42C121.42 28.42 118.7 25.86 118.7 21.42C118.7 15.29 122.86 10.81 128.5 10.81C133.18 10.81 135.9 13.37 135.9 17.81C135.9 23.98 131.74 28.42 126.1 28.42ZM154.99 9.01C151.43 9.01 148.39 10.29 146.35 13.13L147.15 9.17L145.19 9.17L141.03 30.06L143.03 30.06L145.31 18.69C146.35 13.49 149.71 10.81 154.47 10.81C158.39 10.81 160.35 12.73 160.35 15.97C160.35 16.61 160.31 17.25 160.15 17.97L157.75 30.06L159.75 30.06L162.15 17.97C162.31 17.17 162.39 16.41 162.39 15.69C162.39 11.57 159.79 9.01 154.99 9.01ZM187.2 9.17L184.28 9.17L168.72 21.3L172.88 0.37L170.88 0.37L164.95 30.06L166.95 30.06L168.19 23.9L174.68 18.89L181.44 30.06L183.76 30.06L176.24 17.69Z" />
</svg>